<svg width="24" height="24" viewBox="0 0 24 24" fill="none" xmlns="http://www.w3.org/2000/svg">
    <path d="M12 8V12L15 15" stroke="currentColor" stroke-width="2" stroke-linecap="round" stroke-linejoin="round"/>
    <path d="M3.05 11C3.27151 8.80643 4.30118 6.75971 5.95077 5.22061C7.60037 3.68151 9.75656 2.74696 12 2.57M12 2.57C14.1066 2.39466 16.2176 2.90172 18.0429 4.02656C19.8682 5.15139 21.3231 6.84254 22.2116 8.85755C23.1001 10.8726 23.3831 13.1132 22.9233 15.2751C22.4635 17.437 21.2853 19.4101 19.5572 20.9182C17.829 22.4263 15.6391 23.3915 13.3223 23.6771C11.0056 23.9626 8.65592 23.5546 6.5912 22.5114C4.52648 21.4682 2.85055 19.8407 1.77814 17.8399C0.705738 15.8391 0.288351 13.5628 0.58 11.32" stroke="currentColor" stroke-width="2" stroke-linecap="round" stroke-linejoin="round"/>
</svg> 